<svg width="1443" height="103" viewBox="0 0 1443 103" fill="none" xmlns="http://www.w3.org/2000/svg">
<path d="M0 0V77.5L3.59072 77.62L7.215 78L10.8393 78.61L14.43 79.45L18.0543 80.49L21.645 81.73L25.2693 83.14L28.86 84.68L32.4843 86.32L36.075 88.04L39.6657 89.8L43.29 91.57L46.8807 93.3L50.505 94.96L54.1293 96.53L57.72 97.97L61.3107 99.25L64.935 100.34L68.5593 101.23L72.15 101.89L75.7407 102.31L79.365 102.49L82.9893 102.42L86.58 102.11L90.2043 101.55L93.795 100.76L97.3857 99.76L101.01 98.56L104.634 97.19L108.225 95.67L111.849 94.05L115.44 92.34L119.064 90.59L122.655 88.82L126.279 87.08L129.87 85.4L133.461 83.81L137.085 82.34L140.676 81.02L144.3 79.89L147.924 78.95L151.515 78.24L155.139 77.76L158.73 77.52L162.354 77.54L165.945 77.8L169.536 78.31L173.16 79.05L176.751 80L180.375 81.16L183.999 82.49L187.59 83.98L191.214 85.58L194.805 87.27L198.429 89.02L202.02 90.78L205.611 92.53L209.235 94.23L212.826 95.85L216.45 97.35L220.074 98.7L223.665 99.88L227.256 100.86L230.88 101.62L234.504 102.15L238.095 102.44L241.719 102.49L245.31 102.28L248.901 101.83L252.525 101.14L256.149 100.23L259.74 99.11L263.331 97.82L266.955 96.36L270.579 94.78L274.17 93.11L277.794 91.37L281.385 89.61L284.976 87.85L288.6 86.14L292.224 84.5L295.815 82.97L299.406 81.59L303.03 80.37L306.654 79.34L310.245 78.53L313.869 77.94L317.46 77.6L321.051 77.5L324.675 77.65L328.299 78.05L331.89 78.69L335.481 79.55L339.105 80.62L342.729 81.88L346.32 83.3L349.944 84.86L353.535 86.51L357.126 88.24L360.75 90L364.374 91.76L367.965 93.49L371.556 95.14L375.18 96.7L378.804 98.12L382.395 99.38L386.019 100.45L389.61 101.31L393.201 101.95L396.825 102.35L400.449 102.5L404.04 102.4L407.631 102.06L411.255 101.47L414.879 100.66L418.47 99.63L422.094 98.41L425.685 97.03L429.276 95.5L432.9 93.86L436.491 92.15L440.115 90.39L443.706 88.63L447.33 86.89L450.954 85.22L454.545 83.64L458.169 82.18L461.76 80.89L465.384 79.77L468.975 78.86L472.566 78.17L476.19 77.72L479.781 77.51L483.405 77.56L487.029 77.85L490.62 78.38L494.244 79.14L497.835 80.12L501.459 81.3L505.05 82.65L508.641 84.15L512.265 85.77L515.856 87.47L519.48 89.22L523.104 90.98L526.695 92.73L530.319 94.42L533.91 96.02L537.534 97.51L541.125 98.84L544.716 100L548.34 100.95L551.931 101.69L555.555 102.2L559.179 102.46L562.77 102.48L566.394 102.24L569.985 101.76L573.609 101.05L577.2 100.11L580.791 98.98L584.415 97.66L588.006 96.19L591.63 94.6L595.254 92.92L598.845 91.18L602.469 89.41L606.06 87.66L609.684 85.95L613.275 84.33L616.866 82.81L620.49 81.44L624.081 80.24L627.705 79.24L631.329 78.45L634.92 77.89L638.544 77.58L642.135 77.51L645.759 77.69L649.35 78.11L652.941 78.77L656.565 79.66L660.156 80.75L663.78 82.03L667.404 83.47L670.995 85.04L674.619 86.7L678.21 88.43L681.834 90.2L685.425 91.96L689.016 93.68L692.64 95.32L696.231 96.86L699.855 98.27L703.479 99.51L707.07 100.55L710.694 101.39L714.285 102L717.909 102.38L721.5 102.5L725.091 102.38L728.715 102L732.306 101.39L735.93 100.55L739.554 99.51L743.145 98.27L746.769 96.86L750.36 95.32L753.984 93.68L757.575 91.96L761.166 90.2L764.79 88.43L768.381 86.7L772.005 85.04L775.629 83.47L779.22 82.03L782.844 80.75L786.435 79.66L790.059 78.77L793.65 78.11L797.241 77.69L800.865 77.51L804.456 77.58L808.08 77.89L811.704 78.45L815.295 79.24L818.919 80.24L822.51 81.44L826.134 82.81L829.725 84.33L833.316 85.95L836.94 87.66L840.531 89.41L844.155 91.18L847.779 92.92L851.37 94.6L854.994 96.19L858.585 97.66L862.209 98.98L865.8 100.11L869.391 101.05L873.015 101.76L876.639 102.24L880.23 102.48L883.854 102.46L887.445 102.2L891.036 101.69L894.66 100.95L898.284 100L901.875 98.84L905.466 97.51L909.09 96.02L912.714 94.42L916.305 92.73L919.929 90.98L923.52 89.22L927.111 87.47L930.735 85.77L934.359 84.15L937.95 82.65L941.541 81.3L945.165 80.12L948.789 79.14L952.38 78.38L956.004 77.85L959.595 77.56L963.186 77.51L966.81 77.72L970.434 78.17L974.025 78.86L977.616 79.77L981.24 80.89L984.864 82.18L988.455 83.64L992.079 85.22L995.67 86.89L999.261 88.63L1002.89 90.39L1006.51 92.15L1010.1 93.86L1013.69 95.5L1017.32 97.03L1020.94 98.41L1024.53 99.63L1028.15 100.66L1031.74 101.47L1035.34 102.06L1038.96 102.4L1042.58 102.5L1046.18 102.35L1049.77 101.95L1053.39 101.31L1057.01 100.45L1060.6 99.38L1064.23 98.12L1067.82 96.7L1071.41 95.14L1075.04 93.49L1078.66 91.76L1082.25 90L1085.84 88.24L1089.46 86.51L1093.09 84.86L1096.68 83.3L1100.3 81.88L1103.9 80.62L1107.49 79.55L1111.11 78.69L1114.73 78.05L1118.32 77.65L1121.92 77.5L1125.54 77.6L1129.16 77.94L1132.76 78.53L1136.38 79.34L1139.97 80.37L1143.56 81.59L1147.19 82.97L1150.81 84.5L1154.4 86.14L1157.99 87.85L1161.61 89.61L1165.24 91.37L1168.83 93.11L1172.45 94.78L1176.05 96.36L1179.64 97.82L1183.26 99.11L1186.88 100.23L1190.47 101.14L1194.07 101.83L1197.69 102.28L1201.31 102.49L1204.91 102.44L1208.53 102.15L1212.12 101.62L1215.71 100.86L1219.34 99.88L1222.96 98.7L1226.55 97.35L1230.14 95.85L1233.77 94.23L1237.39 92.53L1240.98 90.78L1244.6 89.02L1248.2 87.27L1251.79 85.58L1255.41 83.98L1259.03 82.49L1262.62 81.16L1266.22 80L1269.84 79.05L1273.46 78.31L1277.05 77.8L1280.68 77.54L1284.27 77.52L1287.86 77.76L1291.48 78.24L1295.11 78.95L1298.7 79.89L1302.29 81.02L1305.92 82.34L1309.54 83.81L1313.13 85.4L1316.75 87.08L1320.35 88.82L1323.94 90.59L1327.56 92.34L1331.18 94.05L1334.78 95.67L1338.37 97.19L1341.99 98.56L1345.61 99.76L1349.2 100.76L1352.83 101.55L1356.42 102.11L1360.01 102.42L1363.64 102.49L1367.26 102.31L1370.85 101.89L1374.44 101.23L1378.06 100.34L1381.69 99.25L1385.28 97.97L1388.9 96.53L1392.49 94.96L1396.09 93.3L1399.71 91.57L1403.33 89.8L1406.93 88.04L1410.52 86.32L1414.14 84.68L1417.76 83.14L1421.35 81.73L1424.98 80.49L1428.57 79.45L1432.16 78.61L1435.79 78L1439.41 77.62L1443 77.5V0H0Z" fill="#FEF8DD"/>
</svg>
